# xmcd
# Track frame offsets:
# 187
# 11887
# 24187
# 38437
# 50137
# 64237
# 77512
# 91137
# 105437
# 120037
# 135412
# 150545
# 165262
# 178012
#
# Disc length: 2549 seconds
# Revision: 2
# Processed by: cddbd v1.4PL0 Copyright (c) Steve Scherf et al.
# Submitted via: VisiTrax 2.9.5.181 - For more info visit www.synapsa.com
#
DISCID=9409f30e
DTITLE=Muddy Waters - They Call Me Muddy Waters
DYEAR=1996
DGENRE=Blues
TTITLE0=Gypsy Woman
TTITLE1=I Can't Be Satisfied
TTITLE2=I Feel Like Going Home
TTITLE3=Kind Hearted Woman
TTITLE4=Rollin' Stone
TTITLE5=Walking Blues
TTITLE6=Sad Letter Blues
TTITLE7=Too Young to Know
TTITLE8=Still a Fool
TTITLE9=They Call Me Muddy Waters
TTITLE10=Standing Around Crying
TTITLE11=Baby Please Don't Go
TTITLE12=I'm Your Hoochie Coochie Man
TTITLE13=Mannish Boy
EXTD=1996/03/07 - 07/03/1996 - Banca de Jornais - R$ 5,45 - dolar: R$ 0,9
EXTD=8 - coleção Mestre do Blues nr 4 - Charly Records - update by MSDF - 1
EXTD=8/10/2003
EXTT0=(Morgan Field) - 1948
EXTT1=(Morganfield) - 1948
EXTT2=(Morganfield) - 1948
EXTT3=(Morganfield) - 1948
EXTT4=(Morganfield) - 1950
EXTT5=(Morganfield) - 1950
EXTT6=(Morganfield) - 1950
EXTT7=(Morganfield) - 1951
EXTT8=(Morganfield) - 1951
EXTT9=(Morganfield) - 1952
EXTT10=(Morganfield) - 1952
EXTT11=(Morgannfield) - 1953
EXTT12=(Dixon) - 1954
EXTT13=(Dixon) - 1955
PLAYORDER=
